<svg xmlns="http://www.w3.org/2000/svg" viewBox="0 0 57.61 54.32"><defs><style>.cls-1{fill:#090808;}.cls-2{fill:#090909;}.cls-3{fill:#fc0606;}</style></defs><g id="Layer_2" data-name="Layer 2"><g id="Layer_1-2" data-name="Layer 1"><g id="Layer_2-2" data-name="Layer 2"><g id="Layer_1-2-2" data-name="Layer 1-2"><path class="cls-1" d="M42.33,42.67,40,42.93l-6.42.67c.38,3.12-1.4,4.13-3.49,4.79A38.68,38.68,0,0,1,14.74,49.8a51,51,0,0,1-8.6-1.48c-2.83-.73-3.34-1.7-3.35-4.58V42.61c0-3.45.09-3.6,2.84-4.74L4.89,32.2c.08,0,0-.05-.17-.1C.57,30.66-1,27.38.68,23.25a4.79,4.79,0,0,1,2.53-2.18C7,19.5,11,19.31,15,19.2c.78,0,1.56-.13,2.34-.19h0l.52.23,2.62,2.49c-6-.31-11.94-.5-17.58,2.28a11.83,11.83,0,0,0,3.5,1.4,48.16,48.16,0,0,0,18.07.2l2,1.9a47.22,47.22,0,0,1-23.58-.7c-.5,1.63.16,2.6,1.76,2.85a91,91,0,0,0,9.74,1.27c4.67.21,9.36,0,13.79-1.82l1.66,1.59L23.5,33.05a20.64,20.64,0,0,0,7.72-1l2,1.81a45.07,45.07,0,0,1-25.68,0c-.49,1.62.21,2.55,1.79,2.85A67.59,67.59,0,0,0,16.68,38,39.86,39.86,0,0,0,32,36.65c1.19-.38,1.84-1,1.68-2.26ZM5.2,43.18c-.24,2.38-.28,2.59,1.9,3a66.63,66.63,0,0,0,9.44,1.34A33.8,33.8,0,0,0,29.68,46.1,8.85,8.85,0,0,0,31.42,45l-.23-.37C22.41,45.65,13.74,45.55,5.2,43.18Zm30.59-4.46c-8.54,2.43-17.17,2.06-25.84.75-.38,1.77,1.06,1.91,2,2.09a80.81,80.81,0,0,0,8.49,1.26,38.48,38.48,0,0,0,13.42-1.26C36,41,36.09,40.69,35.79,38.72Z"/><path class="cls-2" d="M24,19.6c0-4.42.05-8.84.06-13.26,0-2.5.57-3.52,3-4.29A34.36,34.36,0,0,1,33.37.6,46,46,0,0,1,50,1.35a15.34,15.34,0,0,1,2.27.72c2.13.87,2.62,1.69,2.62,4V36.74c0,2.75-.38,3.35-3,4.35-1.33.5-2.74.81-4.11,1.21l-2.32-2.12c1.77-.36,3.54-.7,5.3-1.1,1.51-.33,2.13-1.24,1.7-2.52l-9.3,1.37L40.9,35.72c3.34-.48,6.7-.91,10-1.51a2.32,2.32,0,0,0,1.52-1.44,18.32,18.32,0,0,0,.07-3.55,51.47,51.47,0,0,1-6,1.23c-3.53.3-7.08.33-10.63.47l-2.7-2.58c3.57,0,7.15.29,10.71.07a44.48,44.48,0,0,0,7.47-1.48,1.89,1.89,0,0,0,1.12-1.25,28.55,28.55,0,0,0,0-3.7c-7,2.28-14.09,2.15-21.25,1.29L31,26.38ZM26.47,7.83v2c0,2.65,0,2.71,2.64,3.39a43.57,43.57,0,0,0,20.09.21c3.35-.71,3.32-.85,3.3-4.32V7.86A47.2,47.2,0,0,1,26.47,7.83Zm0,7.09v1.64c-.08,3.13,0,3.23,3,4a43.33,43.33,0,0,0,14,.88,58,58,0,0,0,7.94-1.55,1.84,1.84,0,0,0,1.09-1.27,29.47,29.47,0,0,0,0-3.64,46.57,46.57,0,0,1-26.06,0Zm26-10.14C48.19,1.69,29,1.93,26.59,5,29.68,8.06,49.74,8.11,52.51,4.78Z"/><path class="cls-3" d="M33.16,28.38l2.7,2.55,5,4.8,2.32,2.2,2.3,2.21,2.2,2.16c2.86,2.78,5.71,5.57,8.58,8.34a9.85,9.85,0,0,0,1.35.94l-3,2.74L42.34,42.67l-8.66-8.28-.51-.46-2-1.81-1.43-1.37-1.66-1.59-1.72-1.67-2-1.9-4-3.88-2.62-2.49L17.22,19h0c-1.23-1.32-2.42-2.68-3.71-3.94-4.17-4-8.38-8-12.71-12.2L3.38,0c4.13,4,8.16,7.84,12.2,11.69,2.77,2.64,5.57,5.26,8.35,7.89L31,26.39Z"/></g></g></g></g></svg>