<svg xmlns="http://www.w3.org/2000/svg" viewBox="0 0 162.24 234.6"><g id="Layer_2" data-name="Layer 2"><g id="Layer_1-2" data-name="Layer 1"><g id="Layer_2-2" data-name="Layer 2"><g id="Layer_1-2-2" data-name="Layer 1-2"><path d="M.2,117V15.53C.2,5.64,5.81,0,15.81,0H118.12c8.91,0,13.67,4.84,13.51,13.84s-.34,17.8-.67,26.7c0,1.13-1,2.22-1.57,3.32-.53-1.08-1.52-2.16-1.51-3.23.07-9,.36-18,.53-27,.13-6.94-3.27-10.34-10.24-10.34H15.51c-7.76,0-12,4.24-12,11.93V218.75c0,8.35,4.15,12.41,12.54,12.41h101c7.18,0,10.07-2.84,10.11-10.19.06-13.57,0-27.15,0-40.72,0-7.42-.07-14.84.07-22.26,0-1.08,1-2.15,1.56-3.23.52,1.09,1.51,2.18,1.51,3.27q.15,31.33,0,62.66a20.47,20.47,0,0,1-1.57,7.68c-1.82,4.31-5.32,6.12-10.14,6.1-33.26-.1-66.53-.41-99.79.13-13,.21-19-6.3-18.82-19C.54,182.73.2,149.86.2,117Z"/><path d="M13.46,23.06v172.1h104V158.79a8.53,8.53,0,0,1,.14-2.52c.18-.58,1-1.48,1.31-1.39a3.62,3.62,0,0,1,1.71,1.45c.25.38.11,1,.11,1.56v38.8c0,.51-.07,1-.13,1.74H10.26V19.63H120.72V37.48a11.16,11.16,0,0,1-.07,3.16,16.84,16.84,0,0,1-1.7,3.19c-.51-1-1.41-2-1.45-3-.16-4.66-.07-9.33-.06-14V23.06Z"/><path d="M107,93.69v-33c0-2.13.42-3.39,3-3.37q13.5.15,27,0c2.54,0,3,1.2,3,3.35-.06,9.75,0,19.5,0,29.26v3.76h12c1,0,2.32.29,2.73.94s-.16,2-.71,2.71c-9.4,12.82-18.88,25.57-28.3,38.37-1.43,1.94-2.59,2.17-4.13.09q-14.22-19.34-28.49-38.62a3,3,0,0,1-.62-2.5,3,3,0,0,1,2.38-1C98.69,93.64,102.69,93.69,107,93.69Zm43.18,3.24c-4,0-7.15-.13-10.3,0-2.54.14-3.3-.85-3.27-3.32.1-9.85,0-19.71,0-29.57V60.81H110.27v4c0,9.54-.09,19.08,0,28.61,0,2.83-.91,3.77-3.67,3.59-3.08-.21-6.18,0-9.93,0,9.16,12.36,17.82,24.07,26.75,36.13C132.4,121,141.06,109.29,150.19,96.93Z"/><path d="M84.68,145.53c0-3.15-.09-6.2.08-9.23,0-.69,1-1.32,1.54-2,.53.65,1.44,1.26,1.52,2a53.69,53.69,0,0,1,.07,5.95H159q-.11-2.9.07-5.79c.07-.74.9-1.4,1.38-2.1.59.7,1.64,1.37,1.68,2.1.2,2.94.09,5.91.09,9.09Z"/><path d="M77.63,214.1a10.48,10.48,0,0,1-20.95.65v-.65a10.48,10.48,0,0,1,20.95,0Zm-10.34-7.2A7.26,7.26,0,0,0,59.91,214v0a7.25,7.25,0,1,0,7.39-7.15Z"/><path d="M67,12.92c-2.54,0-5.08.1-7.6-.07-.73,0-1.4-.89-2.09-1.37.7-.58,1.4-1.65,2.12-1.67,5.07-.15,10.14-.14,15.2,0,.66,0,1.3,1,1.94,1.56-.65.52-1.28,1.44-2,1.49C72.09,13,69.55,12.92,67,12.92Z"/></g></g></g></g></svg>