<svg xmlns="http://www.w3.org/2000/svg" viewBox="0 0 256 256"><defs><style>.cls-1{fill:#fff;}</style></defs><g id="Layer_2" data-name="Layer 2"><g id="Layer_1-2" data-name="Layer 1"><path class="cls-1" d="M256,256H0V0H256ZM116.94,237.67c-2.88,2.68-5.54,5.19-8.24,7.65-1.48,1.35-2.11,2.83-.77,4.56,1.18,1.52,2.86,1.39,4.75-.33,3-2.74,6-5.53,9-8.3s3-3.79.26-6.75q-29-31.32-57.95-62.64a3.8,3.8,0,0,1-1.15-1.79c-1.24-10.94-4.45-21.38-7.87-31.76a22.2,22.2,0,0,1-.24-14.44c3.1-9,6.54-17.89,9.55-26.92,2.28-6.83,4.45-13.72,6-20.73,1.17-5.14,1.36-10.51,1.93-15.79.44-4.13,2.13-6,6.08-6.35,3.68-.37,6,1.25,7,5.19a23.88,23.88,0,0,1,.55,5.67c0,36.27,0,72.54.12,108.81a20.22,20.22,0,0,0,2.12,9.3c3.95,7.22,10.79,10.37,18.71,10.9A143.21,143.21,0,0,0,124,194c3.7-.2,6.37.53,7.81,4.27a9.45,9.45,0,0,0,2.38,3.48c3,2.72,3.89,6.08,4,10a2.74,2.74,0,0,1-2,3.08c-4.31,1.93-8.53,4.08-12.74,6.23a2.76,2.76,0,0,0-1.32,4.18c1,1.77,2.61,1.61,4.34.77,4.47-2.18,9-4.3,13.53-6.3a4.18,4.18,0,0,1,2.63.3c2.1.7,4.12,2.11,6.22,2.2,6.39.29,12.8.21,19.19,0,4.81-.14,8.09-2.93,9.9-7.21a97.54,97.54,0,0,0,3.92-11.27,31.46,31.46,0,0,0,1.06-7.61c0-1.81.42-2.74,2.26-3.45a19.16,19.16,0,0,0,12.34-18.22q0-10.23,0-20.46V147.8c8.56-1.13,12.89-4.38,14-10.37.61-3.26.22-6.49-2-9-2-2.26-4.57-4-6.9-6,5.94-1.23,10.75-4.42,11.82-11.27s-2.64-11.27-8.94-14.08c2.59-1.67,4.93-3.08,7.17-4.63a13.21,13.21,0,0,0,5-13.24,12.43,12.43,0,0,0-10.1-9.49c-3.6-.68-6.83.29-10.17,2.1,0-2.62-.16-4.87.07-7.09a4.14,4.14,0,0,1,1.54-2.71c4.34-2.93,8.83-5.62,13.2-8.5A12.88,12.88,0,0,0,218,40a11.9,11.9,0,0,0-10.86-9.81c-3.1-.27-6.29.65-9.61,1.06,0-1.41,0-3.3,0-5.18.09-10.29-8.52-19.42-18.81-19.47q-37.07-.18-74.12,0C94.33,6.61,85.78,15.8,85.86,26.1c.06,7.24,0,14.47,0,21.71,0,.78-.09,1.56-.14,2.41-10.87-4.42-19.11,1-19.44,12.6a76.92,76.92,0,0,1-4.2,23c-3.78,10.88-8,21.63-11.84,32.48-2,5.68-3.27,11.57-1.82,17.6,1,4.09,2.48,8.06,3.63,12.12,2.2,7.72,5,15.32,4.83,23.51a5.2,5.2,0,0,1-1.49,3.36c-5.7,5.23-11.54,10.3-17.31,15.44-2,1.76-2.38,3.54-1.17,4.92s3,1.19,5-.56l16-14.24c1-.92,2.09-1.8,3.27-2.81ZM59.12,205a5,5,0,0,0,5.15-4.95A5.05,5.05,0,1,0,59.12,205Z"/><path d="M116.94,237.67,61.27,177.61c-1.18,1-2.24,1.89-3.27,2.81L42,194.66c-2,1.75-3.79,1.94-5,.56s-.8-3.16,1.17-4.92c5.77-5.14,11.61-10.21,17.31-15.44a5.2,5.2,0,0,0,1.49-3.36c.21-8.19-2.63-15.79-4.83-23.51-1.15-4.06-2.64-8-3.63-12.12-1.45-6-.21-11.92,1.82-17.6,3.88-10.85,8.06-21.6,11.84-32.48a76.92,76.92,0,0,0,4.2-23c.33-11.56,8.57-17,19.44-12.6,0-.85.14-1.63.14-2.41,0-7.24,0-14.47,0-21.71C85.78,15.8,94.33,6.61,104.6,6.56q37.07-.19,74.12,0c10.29.05,18.9,9.18,18.81,19.47,0,1.88,0,3.77,0,5.18,3.32-.41,6.51-1.33,9.61-1.06A11.9,11.9,0,0,1,218,40a12.88,12.88,0,0,1-5.7,13.61c-4.37,2.88-8.86,5.57-13.2,8.5a4.14,4.14,0,0,0-1.54,2.71c-.23,2.22-.07,4.47-.07,7.09,3.34-1.81,6.57-2.78,10.17-2.1a12.43,12.43,0,0,1,10.1,9.49,13.21,13.21,0,0,1-5,13.24c-2.24,1.55-4.58,3-7.17,4.63,6.3,2.81,10,7.08,8.94,14.08s-5.88,10-11.82,11.27c2.33,2,4.91,3.72,6.9,6,2.18,2.48,2.57,5.71,2,9-1.14,6-5.47,9.24-14,10.37v6.13q0,10.23,0,20.46a19.16,19.16,0,0,1-12.34,18.22c-1.84.71-2.21,1.64-2.26,3.45a31.46,31.46,0,0,1-1.06,7.61A97.54,97.54,0,0,1,178,214.94c-1.81,4.28-5.09,7.07-9.9,7.21-6.39.19-12.8.27-19.19,0-2.1-.09-4.12-1.5-6.22-2.2a4.18,4.18,0,0,0-2.63-.3c-4.56,2-9.06,4.12-13.53,6.3-1.73.84-3.29,1-4.34-.77a2.76,2.76,0,0,1,1.32-4.18c4.21-2.15,8.43-4.3,12.74-6.23a2.74,2.74,0,0,0,2-3.08c-.06-3.89-1-7.25-4-10a9.45,9.45,0,0,1-2.38-3.48c-1.44-3.74-4.11-4.47-7.81-4.27a143.21,143.21,0,0,1-17.21,0c-7.92-.53-14.76-3.68-18.71-10.9a20.22,20.22,0,0,1-2.12-9.3c-.15-36.27-.09-72.54-.12-108.81a23.88,23.88,0,0,0-.55-5.67c-1-3.94-3.34-5.56-7-5.19-4,.4-5.64,2.22-6.08,6.35-.57,5.28-.76,10.65-1.93,15.79-1.59,7-3.76,13.9-6,20.73-3,9-6.45,17.91-9.55,26.92A22.2,22.2,0,0,0,55,138.31c3.42,10.38,6.63,20.82,7.87,31.76A3.8,3.8,0,0,0,64,171.86q28.95,31.33,58,62.64c2.74,3,2.72,4-.26,6.75s-6,5.56-9,8.3c-1.89,1.72-3.57,1.85-4.75.33-1.34-1.73-.71-3.21.77-4.56C111.4,242.86,114.06,240.35,116.94,237.67Zm71.6-137.41c-.65-.47-1.09-.78-1.52-1.12a11.72,11.72,0,0,1-4.91-9.1c-.21-5.48,1.88-9.75,6.74-12.39,2.15-1.16,2.9-2.6,2.88-5.11-.15-13.72-.07-27.44-.07-41.17V28.49H91.92V154.06h44.2c-.34-2.76,1.1-5.37-1.32-7.84a9.92,9.92,0,0,1-.55-13.21,10.13,10.13,0,0,1,12.62-2.58c4.51,2.36,6.21,7.28,4.94,12.36-.91,3.61-1,7.43-1.47,11.26h41.33c0-2,.05-3.83,0-5.64a2,2,0,0,0-.71-1.38c-2.53-1.88-5.12-3.69-7.59-5.45-1.9,5.27-5.44,8.11-10.37,8a10.51,10.51,0,0,1-9.36-7.06,9.88,9.88,0,0,1,4-11.42c5.88-3.77,10.78-1.75,14.46,2.85l4.28-8.51a13.69,13.69,0,0,1-8.45-7.77c-7.82,1.26-11.64-.24-13.84-5.32-1.84-4.27-.57-9.74,3.3-12.23a13.65,13.65,0,0,1,6-1.86c3.89-.34,6.74,1.81,8.68,4.74ZM143,211c0,3,2.33,6.26,5.7,6.33,6.81.15,13.63-.07,20.43-.38,2.42-.12,4.18-2.51,4.53-5.27-1.69-.22-3.76-.23-3.73-2.64s2.22-1.91,3.63-2.58a6.17,6.17,0,0,0,3.14-2.78,18.55,18.55,0,0,0,1.15-6.79c-.21-6.28-.67-12.57-1.26-18.83-.19-2-1.33-3.69-4.31-4,0,2.65-.07,5.13,0,7.59.07,1.79-.64,3.16-2.37,3.13s-2.71-1.31-2.65-3.25c.09-2.65.06-5.32,0-8,0-3.57-2-5.2-5.88-4.76,0,.86,0,1.75,0,2.64,0,3.16.05,6.33-.22,9.47a3.21,3.21,0,0,1-2,2.23c-1.38.35-2.3-.64-2.4-2.15,0-.58,0-1.17-.05-1.75-.06-3.82,0-7.65-.19-11.47-.17-3.48-2.42-5-5.76-4,0,.39-.06.79-.06,1.2,0,4.74,0,9.48,0,14.22,0,1.68-.9,2.74-2.31,2.59-.87-.09-1.83-1.29-2.36-2.22a5.83,5.83,0,0,1-.25-2.7q-.12-14.83-.2-29.68c0-1.4-.37-2.56-2-2.56s-2.33.86-2.37,2.53c-.07,2.82-.36,5.64-.44,8.46-.27,8.89-.47,17.78-.74,26.67,0,1.69-.18,3.61-2.48,3.59s-2.42-1.79-2.54-3.56a3.54,3.54,0,0,0-.89-2.35,50.53,50.53,0,0,0-5.87-4.2c-2.11-1.28-4.23-1-6.43.63.65.84,1.2,1.54,1.72,2.26,3.89,5.27,7.91,10.45,11.6,15.86,2.74,4,5.47,7.9,9.55,10.72.91.62,1.94,2.28,1.68,3.08C146.1,209.32,144.51,209.9,143,211ZM92.36,22.3h98.81a12.43,12.43,0,0,0-.32-1.56c-1.9-5.23-6.46-8.36-12.34-8.38-13.48,0-26.95,0-40.43,0-11.15,0-22.29,0-33.44,0C98.29,12.4,93,16.68,92.36,22.3Zm-.62,137.91c0,5.14,0,10.1,0,15.07a12.58,12.58,0,0,0,13,12.89c6.06.05,12.13,0,18.19,0,.61,0,1.23-.09,2.26-.17-1.31-1.58-2.35-2.85-3.4-4.1s-2.2-2.5-3.21-3.81c-2.45-3.2-2.22-5.74,1.13-8a11.17,11.17,0,0,1,5.5-1.87c2.13-.07,4.29.77,6.08,1.14.77-1.57,1.2-3.68,2.49-4.79,2.16-1.86,2-3.93,1.86-6.35Zm66.62,0c1.37,2.66,3.07,4,6,3.85,2.58-.09,4.7,1.37,6.23,3.58a3.15,3.15,0,0,0,1.9,1.37c5.88.54,8.21,4.45,9.17,9.58.55,2.89.83,5.83,1.26,8.9,4.37-1.4,7.65-4.23,8.08-8.46.65-6.19.17-12.5.17-18.82Zm29.13-71.44c.09,5.79,5.78,9.1,10.66,6.13,3.89-2.37,7.75-4.79,11.52-7.34,3.37-2.27,3.83-5.47,1.53-9.09s-5.4-4.55-8.88-2.47c-4,2.42-8,5-12,7.58A5.71,5.71,0,0,0,187.49,88.76Zm21.63,22.11c.08-5.71-3.4-9.29-7.67-8.21-5,1.28-10,2.89-14.94,4.66-3.3,1.2-4.33,4.38-3.11,8.1s3.88,5.63,7.31,4.67c4.94-1.37,9.82-3,14.67-4.66A5.17,5.17,0,0,0,209.12,110.87ZM197.54,56.08c4.14-2.63,7.79-4.9,11.39-7.25,2.88-1.88,4.16-4.73,3.56-7.59a8.06,8.06,0,0,0-6.17-5.82c-1.82-.3-7.74,2.31-8.58,3.81a2,2,0,0,0-.19,1C197.54,45.3,197.54,50.41,197.54,56.08Zm-.64,85.68v-.07c1.16,0,2.33.08,3.49,0,3.66-.32,5.73-2.77,5.65-6.58-.09-4.05-2.22-6.34-6-6.44-1.74,0-3.49,0-5.23,0-4.4.11-6.71,2.43-6.64,6.64s2.33,6.42,6.78,6.43Zm-28.75-2.41a5,5,0,0,0,5.29,5.29,5.2,5.2,0,0,0,5.14-5.29,5.11,5.11,0,0,0-5.27-5.14A4.9,4.9,0,0,0,168.15,139.35Zm5-36.44a5.13,5.13,0,0,0-5,5.65,5.2,5.2,0,0,0,5.13,5c2.86,0,5.28-2.89,5.25-6.13C178.52,105.25,175.64,102.84,173.13,102.91Zm-25.81,37.61c.06-3.33-1.12-5.25-3.34-6a5.33,5.33,0,0,0-6,1.79,4.6,4.6,0,0,0-.16,5.85C140.66,140,143.65,138.66,147.32,140.52Z"/><path d="M59.12,205a5,5,0,1,1,5.15-4.95A5,5,0,0,1,59.12,205Z"/><path class="cls-1" d="M188.54,100.26,182,103c-1.94-2.93-4.79-5.08-8.68-4.74a13.65,13.65,0,0,0-6,1.86c-3.87,2.49-5.14,8-3.3,12.23,2.2,5.08,6,6.58,13.84,5.32a13.69,13.69,0,0,0,8.45,7.77l-4.28,8.51c-3.68-4.6-8.58-6.62-14.46-2.85a9.88,9.88,0,0,0-4,11.42,10.51,10.51,0,0,0,9.36,7.06c4.93.14,8.47-2.7,10.37-8,2.47,1.76,5.06,3.57,7.59,5.45a2,2,0,0,1,.71,1.38c.08,1.81,0,3.64,0,5.64H150.34c.47-3.83.56-7.65,1.47-11.26,1.27-5.08-.43-10-4.94-12.36A10.13,10.13,0,0,0,134.25,133a9.92,9.92,0,0,0,.55,13.21c2.42,2.47,1,5.08,1.32,7.84H91.92V28.49h99.74v2.88c0,13.73-.08,27.45.07,41.17,0,2.51-.73,3.95-2.88,5.11C184,80.29,181.9,84.56,182.11,90a11.72,11.72,0,0,0,4.91,9.1C187.45,99.48,187.89,99.79,188.54,100.26Zm-15.3-13.07a10.14,10.14,0,0,0,10.23-10,10.47,10.47,0,0,0-10.11-10.32A10.26,10.26,0,0,0,163.21,77,10,10,0,0,0,173.24,87.19ZM121.15,77.07a10.15,10.15,0,1,0-20.3,0A10.15,10.15,0,0,0,111,87.19,10,10,0,0,0,121.15,77.07Zm31.09.16a10.06,10.06,0,0,0-10.17-10.34c-5.66,0-9.91,4.51-10,10.52A9.94,9.94,0,0,0,142,87.2,10.05,10.05,0,0,0,152.24,77.23Zm-31.1,62.35c.07-5.85-4.39-10.27-10.44-10.33-5.09-.05-9.8,4.71-9.85,9.94a10.15,10.15,0,1,0,20.29.39Zm-9.9-41.4c-5.83,0-10.33,4.21-10.41,9.81-.09,6,4.23,10.23,10.43,10.31a10.06,10.06,0,0,0,0-20.12Zm30.83,20c6,0,10.14-4.11,10.17-10.14a10.18,10.18,0,0,0-10-10c-4.69-.18-10.54,4.43-10.14,10.3C132.5,114.05,136.41,118.25,142.07,118.23Z"/><path class="cls-1" d="M143,211c1.55-1.13,3.14-1.71,3.45-2.7.26-.8-.77-2.46-1.68-3.08-4.08-2.82-6.81-6.72-9.55-10.72-3.69-5.41-7.71-10.59-11.6-15.86-.52-.72-1.07-1.42-1.72-2.26,2.2-1.66,4.32-1.91,6.43-.63a50.53,50.53,0,0,1,5.87,4.2,3.54,3.54,0,0,1,.89,2.35c.12,1.77.3,3.55,2.54,3.56s2.43-1.9,2.48-3.59c.27-8.89.47-17.78.74-26.67.08-2.82.37-5.64.44-8.46,0-1.67.77-2.53,2.37-2.53s2,1.16,2,2.56q.09,14.84.2,29.68a5.83,5.83,0,0,0,.25,2.7c.53.93,1.49,2.13,2.36,2.22,1.41.15,2.33-.91,2.31-2.59-.06-4.74,0-9.48,0-14.22,0-.41,0-.81.06-1.2,3.34-.95,5.59.56,5.76,4,.18,3.82.13,7.65.19,11.47,0,.58,0,1.17.05,1.75.1,1.51,1,2.5,2.4,2.15a3.21,3.21,0,0,0,2-2.23c.27-3.14.18-6.31.22-9.47,0-.89,0-1.78,0-2.64,3.92-.44,5.84,1.19,5.88,4.76,0,2.66.06,5.33,0,8-.06,1.94.91,3.22,2.65,3.25s2.44-1.34,2.37-3.13c-.09-2.46,0-4.94,0-7.59,3,.27,4.12,2,4.31,4,.59,6.26,1,12.55,1.26,18.83a18.55,18.55,0,0,1-1.15,6.79,6.17,6.17,0,0,1-3.14,2.78c-1.41.67-3.61.23-3.63,2.58s2,2.42,3.73,2.64c-.35,2.76-2.11,5.15-4.53,5.27-6.8.31-13.62.53-20.43.38C145.29,217.29,143,214,143,211Z"/><path class="cls-1" d="M92.36,22.3c.67-5.62,5.93-9.9,12.28-9.93,11.15-.06,22.29,0,33.44,0,13.48,0,26.95,0,40.43,0,5.88,0,10.44,3.15,12.34,8.38a12.43,12.43,0,0,1,.32,1.56Z"/><path class="cls-1" d="M91.74,160.21h43.87c.13,2.42.3,4.49-1.86,6.35-1.29,1.11-1.72,3.22-2.49,4.79-1.79-.37-3.95-1.21-6.08-1.14a11.17,11.17,0,0,0-5.5,1.87c-3.35,2.27-3.58,4.81-1.13,8,1,1.31,2.15,2.54,3.21,3.81s2.09,2.52,3.4,4.1c-1,.08-1.65.17-2.26.17-6.06,0-12.13.05-18.19,0a12.58,12.58,0,0,1-13-12.89C91.69,170.31,91.74,165.35,91.74,160.21Z"/><path class="cls-1" d="M158.36,160.2h32.81c0,6.32.48,12.63-.17,18.82-.43,4.23-3.71,7.06-8.08,8.46-.43-3.07-.71-6-1.26-8.9-1-5.13-3.29-9-9.17-9.58a3.15,3.15,0,0,1-1.9-1.37c-1.53-2.21-3.65-3.67-6.23-3.58C161.43,164.16,159.73,162.86,158.36,160.2Z"/><path class="cls-1" d="M187.49,88.76a5.71,5.71,0,0,1,2.87-5.19c4-2.57,7.91-5.16,12-7.58,3.48-2.08,6.61-1.12,8.88,2.47s1.84,6.82-1.53,9.09c-3.77,2.55-7.63,5-11.52,7.34C193.27,97.86,187.58,94.55,187.49,88.76Z"/><path class="cls-1" d="M209.12,110.87a5.17,5.17,0,0,1-3.74,4.56c-4.85,1.67-9.73,3.29-14.67,4.66-3.43,1-6.08-.91-7.31-4.67s-.19-6.9,3.11-8.1c4.9-1.77,9.89-3.38,14.94-4.66C205.72,101.58,209.2,105.16,209.12,110.87Z"/><path class="cls-1" d="M197.54,56.08c0-5.67,0-10.78,0-15.9a2,2,0,0,1,.19-1c.84-1.5,6.76-4.11,8.58-3.81a8.06,8.06,0,0,1,6.17,5.82c.6,2.86-.68,5.71-3.56,7.59C205.33,51.18,201.68,53.45,197.54,56.08Z"/><path class="cls-1" d="M196.9,141.76h-2q-6.67,0-6.78-6.43c-.07-4.21,2.24-6.53,6.64-6.64,1.74,0,3.49-.07,5.23,0,3.82.1,5.95,2.39,6,6.44.08,3.81-2,6.26-5.65,6.58-1.16.1-2.33,0-3.49,0Z"/><path class="cls-1" d="M168.15,139.35a4.9,4.9,0,0,1,5.16-5.14,5.11,5.11,0,0,1,5.27,5.14,5.2,5.2,0,0,1-5.14,5.29A5,5,0,0,1,168.15,139.35Z"/><path class="cls-1" d="M173.13,102.91c2.51-.07,5.39,2.34,5.42,4.54,0,3.24-2.39,6.08-5.25,6.13a5.2,5.2,0,0,1-5.13-5A5.13,5.13,0,0,1,173.13,102.91Z"/><path class="cls-1" d="M147.32,140.52c-3.67-1.86-6.66-.57-9.54,1.61a4.6,4.6,0,0,1,.16-5.85,5.33,5.33,0,0,1,6-1.79C146.2,135.27,147.38,137.19,147.32,140.52Z"/><path d="M173.24,87.19a10,10,0,0,1-10-10.18,10.26,10.26,0,0,1,10.15-10.17,10.47,10.47,0,0,1,10.11,10.32A10.14,10.14,0,0,1,173.24,87.19Zm-.08-4.94a5.08,5.08,0,0,0,5.42-5.19,5.35,5.35,0,0,0-5.24-5.24,5,5,0,0,0-5.19,5.41A4.88,4.88,0,0,0,173.16,82.25Z"/><path d="M121.15,77.07A10,10,0,0,1,111,87.19a10.15,10.15,0,0,1-10.19-10.08,10.15,10.15,0,1,1,20.3,0Zm-5,.18c0-3.23-2.14-5.44-5.19-5.44A5.3,5.3,0,0,0,105.76,77c0,3.17,2.29,5.29,5.67,5.2A4.88,4.88,0,0,0,116.17,77.25Z"/><path d="M152.24,77.23A10.05,10.05,0,0,1,142,87.2a9.94,9.94,0,0,1-9.89-9.79c0-6,4.3-10.48,10-10.52A10.06,10.06,0,0,1,152.24,77.23Zm-10.05,5a5.21,5.21,0,0,0,5.27-5.14,5.33,5.33,0,0,0-5.2-5.29,5.45,5.45,0,0,0-5.43,5.34A5.3,5.3,0,0,0,142.19,82.25Z"/><path d="M121.14,139.58a10.15,10.15,0,1,1-20.29-.39c.05-5.23,4.76-10,9.85-9.94C116.75,129.31,121.21,133.73,121.14,139.58Zm-4.89-.13a5.14,5.14,0,0,0-5.4-5.26,5,5,0,0,0-5,5.29,5.22,5.22,0,0,0,10.44,0Z"/><path d="M111.24,98.18a10.06,10.06,0,0,1,0,20.12c-6.2-.08-10.52-4.35-10.43-10.31C100.91,102.39,105.41,98.15,111.24,98.18Zm4.94,10.18a5.13,5.13,0,0,0-5-5.41,5.35,5.35,0,0,0-5.43,5.07,5.5,5.5,0,0,0,5.21,5.6A5.28,5.28,0,0,0,116.18,108.36Z"/><path d="M142.07,118.23c-5.66,0-9.57-4.18-10-9.82-.4-5.87,5.45-10.48,10.14-10.3a10.18,10.18,0,0,1,10,10C152.21,114.12,148.11,118.2,142.07,118.23Zm0-15.36a5.59,5.59,0,0,0-5.3,5.28,5.34,5.34,0,1,0,10.67-.09A5.64,5.64,0,0,0,142.1,102.87Z"/><path class="cls-1" d="M173.16,82.25a4.88,4.88,0,0,1-5-5,5,5,0,0,1,5.19-5.41,5.35,5.35,0,0,1,5.24,5.24A5.08,5.08,0,0,1,173.16,82.25Z"/><path class="cls-1" d="M116.17,77.25a4.88,4.88,0,0,1-4.74,5c-3.38.09-5.69-2-5.67-5.2A5.3,5.3,0,0,1,111,71.81C114,71.81,116.14,74,116.17,77.25Z"/><path class="cls-1" d="M142.19,82.25a5.3,5.3,0,0,1-5.36-5.09,5.45,5.45,0,0,1,5.43-5.34,5.33,5.33,0,0,1,5.2,5.29A5.21,5.21,0,0,1,142.19,82.25Z"/><path class="cls-1" d="M116.25,139.45a5.22,5.22,0,0,1-10.44,0,5,5,0,0,1,5-5.29A5.14,5.14,0,0,1,116.25,139.45Z"/><path class="cls-1" d="M116.18,108.36a5.28,5.28,0,0,1-5.22,5.26,5.5,5.5,0,0,1-5.21-5.6,5.35,5.35,0,0,1,5.43-5.07A5.13,5.13,0,0,1,116.18,108.36Z"/><path class="cls-1" d="M142.1,102.87a5.64,5.64,0,0,1,5.37,5.19,5.34,5.34,0,1,1-10.67.09A5.59,5.59,0,0,1,142.1,102.87Z"/></g></g></svg>