<svg xmlns="http://www.w3.org/2000/svg" viewBox="0 0 243.42 240.89"><g id="Layer_2" data-name="Layer 2"><g id="Layer_1-2" data-name="Layer 1"><g id="Layer_2-2" data-name="Layer 2"><g id="Layer_1-2-2" data-name="Layer 1-2"><path d="M203.91,240.89l-56-56.23c-3.4,3.41-6.65,6.85-10.12,10a10.64,10.64,0,0,1-4.61,2.51c-6,1.38-12,2.48-18.3,3.75,1.39-7,2.68-13.66,4.08-20.29a4.79,4.79,0,0,1,1.44-2q6.24-6.28,12.52-12.54c3.23-3.24,3.29-3.41,2.53-8.44H119c-.09-1-.21-1.72-.21-2.43V130.76a2.92,2.92,0,0,1,1.86-3.07c11.24-5.56,22.42-11.25,33.68-16.78a5.84,5.84,0,0,1,3.93-.2c6.89,2.15,13.73,4.45,20.55,6.8a2.86,2.86,0,0,0,3.53-.79c1.67-1.84,3.46-3.58,5.28-5.3a11.82,11.82,0,0,1,16.6,16.84c-1.73,1.8-3.63,3.45-5.23,5.35a3.74,3.74,0,0,0-.8,3q4.41,13.75,9.12,27.41a9,9,0,0,0,2.18,3.25q16.09,16.2,32.26,32.32c.63.63,1.23,1.3,1.67,1.77ZM170.19,162c-5.36-5.39-10.9-10.9-16.35-16.48a3.55,3.55,0,0,0-4-1.1c-1.4.43-2.92.5-4.36.83-1,.24-2,.48-2,2,0,6.56-.25,13.12-.16,19.68a6.14,6.14,0,0,0,1.73,3.85c7.92,8.08,16,16,24,24,.45.45,1,.82,1.47,1.25.39-.3.68-.47.91-.69,9.11-9.11,18.25-18.2,27.28-27.39a3.57,3.57,0,0,0,.6-3c-2.27-7.2-4.7-14.34-7.1-21.5-.22-.66-.54-1.28-.82-1.95Zm62.19,39.34c-.37-.39-.91-1-1.49-1.59-8.17-8.18-16.38-16.31-24.48-24.56-1.51-1.55-2.35-1.65-3.92,0-8.15,8.31-16.42,16.5-24.65,24.74-.56.57-1.08,1.19-1.37,1.51q14.22,14.26,27.89,27.94Zm-73.26-62.15,15.08-14.84c-.72-.29-1.45-.63-2.21-.89-4.32-1.45-8.62-3-13-4.24a6.81,6.81,0,0,0-4.43.3c-7,3.31-13.64,7.32-20.79,10.16-6,2.39-8.53,5.85-7.44,12.24.43,2.53.07,5.2.07,7.81h9v-8.78c0-1.25.26-1.9,1.73-2.12,3.09-.46,6.13-1.26,9.2-1.88,4.61-.93,9.45-2.84,12.79,2.24Zm6,5.84,5.4,5.72c.21,0,.31,0,.36-.08,9.42-9.36,18.89-18.69,28.15-28.2.87-.88.93-3.13.54-4.5a3.36,3.36,0,0,0-4.25-2.15h0a6.8,6.8,0,0,0-2.87,1.77q-13.09,13-26.11,26c-.46.49-.86,1-1.23,1.42ZM137,173.92l-5.75,5.32,5.38,5.59,5.73-5.71Zm-11.2,11.51-1.1,5.65,5.9-1.11Z"/><path d="M57.83,79.76H13.42C5.35,79.75,0,74.44,0,66.31V13.41C0,5.41,5.33.09,13.25.09h89.57a12.57,12.57,0,0,1,12.75,12.39V67.05a12.58,12.58,0,0,1-12.46,12.7H57.83Zm-50-47.82V66.58c0,4.53.8,5.35,5.36,5.35H103c3.89,0,4.88-1,4.88-4.82V34.18c0-.73-.09-1.45-.14-2.28Zm100-8V13.2c0-4.52-.82-5.34-5.38-5.34H11.94c-2.06,0-3.88.66-4,2.86-.23,4.36-.07,8.74-.07,13.23Z"/><path d="M188.73,234.63a21.21,21.21,0,0,1-13.8,4.93H24.11v-7.73c.28-.05.58-.11.88-.14,7-.8,10.92-5.16,10.93-12.16V84.1h7.71c0,.64.14,1.35.14,2.07v133c0,4.48-1.54,8.41-4.17,12.36,1.19.06,2,.14,2.92.14H174.27c3.36,0,6.44-.53,9.25-2.95Z"/><path d="M227.23,23.87H195.66V99.58h-8V20.65A21.92,21.92,0,0,1,191.88,8H123.94V0h82.68C219.46.05,228.86,10.78,227.23,23.87Zm-30.81-8.1h22.46c-1.83-5.51-6.39-8.28-12.59-7.84C201.26,8.29,197.22,11.51,196.42,15.77Z"/><path d="M132,16.18h47.38v47.4H132Zm39.63,39.71V24H139.74V55.89Z"/><path d="M72,95.58V88.13H179.35v7.45Z"/><path d="M56.05,111.58v-7.47h87.36v7.47Z"/><path d="M72,219.41v-7.47h83.36v7.47Z"/><path d="M115.5,184v7.45H56.1V184Z"/><path d="M56.09,120h55.35v7.5H56.09Z"/><path d="M111.5,152v7.46H56.1V152Z"/><path d="M72,143.52v-7.46h39.43v7.46Z"/><path d="M91.53,175.5H56.12V168H91.53Z"/></g></g></g></g></svg>