<svg xmlns="http://www.w3.org/2000/svg" viewBox="0 0 53.85 53.87"><g id="Layer_2" data-name="Layer 2"><g id="Layer_1-2" data-name="Layer 1"><g id="Layer_2-2" data-name="Layer 2"><g id="Layer_1-2-2" data-name="Layer 1-2"><path d="M48.06,53.87A7.09,7.09,0,0,1,44,51.47c-4-4-8-8-12-12.07-.92-.92-.92-1.32,0-2.26l.28-.3-2.42-2.42a18.73,18.73,0,0,1-14.52,3.09A18.38,18.38,0,0,1,4.09,30.7a18.94,18.94,0,1,1,30.32-.83l2.44,2.47a5.45,5.45,0,0,1,.57-.7,1,1,0,0,1,1.4-.19.86.86,0,0,1,.19.19l.34.34,12,12a7.17,7.17,0,0,1,2.5,4.1v1a2.59,2.59,0,0,1-.09.4,5.35,5.35,0,0,1-1.91,3.23,6.3,6.3,0,0,1-2.74,1.16Zm-46-34.95A16.85,16.85,0,1,0,18.92,2.08h0A16.91,16.91,0,0,0,2.06,18.92ZM38.32,42.79l.18.2,7.7,7.7c.15.14.31.28.48.41a3.16,3.16,0,0,0,4-4.9Q46.86,42.33,43,38.51l-.19-.17Zm-.06-8.86-4.34,4.34,2.82,2.81,4.33-4.33Zm-5.18-2.24-1.37,1.37,2.06,2.07,1.39-1.37Z"/><path d="M4.17,18.87a14.73,14.73,0,1,1,14.66,14.8h0A14.77,14.77,0,0,1,4.17,18.87ZM18.92,6.29A12.63,12.63,0,1,0,31.53,18.94v0A12.66,12.66,0,0,0,18.92,6.29Z"/><path d="M20,9.47c0,.61-.47,1-1.22,1a8.4,8.4,0,0,0-7.6,5.22c-.06.13-.1.26-.16.39a1.06,1.06,0,0,1-1.24.84l-.18-.05a1,1,0,0,1-.62-1.27A1,1,0,0,1,9,15.37a17,17,0,0,1,1.57-2.83,10.2,10.2,0,0,1,8.1-4.08,1.08,1.08,0,0,1,1.23.9A.41.41,0,0,1,20,9.47Z"/><path d="M10.56,20a1.07,1.07,0,0,1-1,1.06,1,1,0,0,1-1.06-.94v-.06A1,1,0,0,1,9.44,19H9.5A1.07,1.07,0,0,1,10.56,20Z"/></g></g></g></g></svg>