<svg xmlns="http://www.w3.org/2000/svg" viewBox="0 0 56.62 58.63"><g id="Layer_2" data-name="Layer 2"><g id="Layer_1-2" data-name="Layer 1"><g id="Layer_2-2" data-name="Layer 2"><g id="Layer_1-2-2" data-name="Layer 1-2"><path d="M28.29,0H44.66c2.39,0,2.82.41,3,2.78a7,7,0,0,0,6.45,6.6c1.92.2,2.62.82,2.5,2.39-.84,11.06-3.92,21.37-10.26,30.58A57.18,57.18,0,0,1,29.83,58.11a2.43,2.43,0,0,1-3,0A55.45,55.45,0,0,1,1.91,23.44C1,19.69.59,15.81,0,12-.16,10.38.55,9.62,2.16,9.4,6.5,8.83,8.75,6.52,9,2.29,9.08.55,10,0,11.58,0ZM52.77,13A11.18,11.18,0,0,1,44,3.84H13.18c-1.31,2.22-2.13,4.35-3.6,5.86s-3.67,2.48-5.81,3.92c.43,2.39.8,5.2,1.43,8A52.69,52.69,0,0,0,27,53.89a2,2,0,0,0,2.73-.06A52.67,52.67,0,0,0,45.78,36.31,56.62,56.62,0,0,0,52.77,13Z"/><path d="M28.38,8.33A16.19,16.19,0,1,1,12.12,24.45v-.12A16.16,16.16,0,0,1,28.38,8.33Zm0,28.66A12.53,12.53,0,0,0,40.91,24.53a12.59,12.59,0,1,0-25.17.09A12.53,12.53,0,0,0,28.35,37Z"/><path d="M25.74,26.78c2.81-2.4,5.46-4.64,8.08-6.92,1-.85,2.07-1.33,3-.23s.41,2.12-.61,3c-3,2.58-6.06,5.19-9.11,7.77-1.4,1.18-2.16,1.11-3.37-.27s-2.41-2.81-3.61-4.22c-.8-.94-.91-1.9.07-2.74s1.93-.49,2.71.41S24.74,25.62,25.74,26.78Z"/></g></g></g></g></svg>