<svg xmlns="http://www.w3.org/2000/svg" viewBox="0 0 238.63 238.73"><g id="Layer_2" data-name="Layer 2"><g id="Layer_1-2" data-name="Layer 1"><g id="Layer_2-2" data-name="Layer 2"><g id="Layer_1-2-2" data-name="Layer 1-2"><path d="M128.47,96.93c9.6-11.61,15.62-24,17.38-39.1-4.31,0-8.09.17-11.85-.09-1.47-.1-3.73-.85-4.11-1.88a5.83,5.83,0,0,1,.85-4.91c13.12-16.29,26.39-32.44,39.61-48.63,2.5-3.06,4.92-2.94,7.37.06C190.86,18.46,204,34.5,217,50.66c1,1.2,1.64,3.61,1.07,4.78s-2.84,2-4.45,2.13c-4.1.43-9.4-1.07-12,1s-2,7.67-3.58,11.4c-4.34,10.3-9.07,20.42-13.55,30.39L194.32,98a68.61,68.61,0,0,1,.1-8.84c.24-1.76,1.1-4,2.43-4.85.94-.6,3.53.29,4.71,1.3,11.72,10,23.29,20.26,34.93,30.39,3,2.59,2.74,5-.12,7.44-11.67,10.14-23.23,20.42-34.94,30.42-1.18,1-3.75,1.85-4.74,1.24-1.31-.8-2.08-3-2.39-4.78-.4-2.23-.1-4.58-.1-7.53l-5.63,1.31c3.67,10.24,7.92,20,10.51,30.13,1.39,5.48,3.16,7.68,8.65,6.86a18,18,0,0,1,6,.06c1.61.31,3.85,1,4.41,2.2s-.18,3.55-1.14,4.77c-6.25,8-12.71,15.76-19.11,23.6s-13,16-19.55,23.89c-3.47,4.19-5.12,4.18-8.58,0-12.85-15.7-25.67-31.32-38.37-47.09-1.1-1.36-2.21-4.16-1.56-5.15.9-1.38,3.4-2.14,5.3-2.34a107.69,107.69,0,0,1,10.78-.12c-1.8-15.12-7.78-27.53-17.21-38.85-5.37,5.11-10.16,9.29-9.77,18.09.92,20.21.31,40.49.29,60.74,0,11.79-6,17.85-17.72,17.86H17.79C6.05,238.69,0,232.69,0,220.9V17.74C0,6,6.08,0,17.86,0h83.66c11.66,0,17.65,6.1,17.67,17.9,0,20.59.14,41.17-.1,61.75,0,5.09.4,9.39,5,12.49C125.66,93.2,126.73,95,128.47,96.93Zm-17.18-14.3c.11-1.73.27-3.17.27-4.61V17.77c0-7.58-2.56-10.15-10.14-10.15H17.76c-7.57,0-10.13,2.57-10.13,10.16V220.94c0,7.58,2.57,10.14,10.16,10.15h83.65c7.56,0,10.11-2.58,10.12-10.19V160.65c0-1.43-.17-2.86-.28-4.58-19.91,6.32-36.78,2.47-48.66-14.78-9.65-14-9.76-29.36-.26-43.49C74.19,80.22,91.18,76.29,111.29,82.63Zm24.57,36.58c4.71-1.39,9.61-2.26,14-4.24,25.34-11.43,39.86-31.06,43.19-58.68.53-4.44,2.18-6.27,6.52-6,2.07.14,4.15,0,7.58,0L174,9.78c-11.12,13.6-21.74,26.59-33,40.33,2.56.17,4,.32,5.41.34,7.48.11,8,.81,7,8.1a82.1,82.1,0,0,1-18.8,42.62c-1,1.24-2.13,3.16-1.93,4.59C133.39,110,134.62,114.09,135.86,119.21Zm71,69.48a58.62,58.62,0,0,0-6.49-.3c-5,.45-6.86-1.45-7.44-6.66-2.37-21.44-12.66-38.43-30.19-51-7-5-14-8.65-23.3-5-6.5,2.51-8.84,7-4.37,12.36a82.24,82.24,0,0,1,18.69,43.72c.61,5.07-.45,6.34-5.47,6.47h-7.56c11.57,14.15,22.19,27.15,33.27,40.69Zm-79.4-69.2a32,32,0,1,0-32.1,31.9h0a31.94,31.94,0,0,0,32.09-31.77v-.13Zm101.65.14-26.74-23.3c-1.14,8.16-1.14,8.16-8.94,9.68-.65.13-1.32.19-2,.35-10.52,2.55-19.57,7.51-26.89,15.81,4.08,3.39,8.26,6,11.31,9.59,4.11,4.8,8.19,7.12,14.32,4,1.56-.78,3.56-.67,5.36-1,3.85-.69,6.16.56,6.23,4.8a35,35,0,0,0,.42,3.6Z"/><path d="M79.32,202.79a19.73,19.73,0,1,1-20-19.49h.13A19.88,19.88,0,0,1,79.32,202.79ZM59.44,190.92a12.11,12.11,0,1,0,12.27,12,2.09,2.09,0,0,1,0-.25A12.06,12.06,0,0,0,59.44,190.92Z"/><path d="M40.13,23.29v-7.1H79.07v7.1Z"/><path d="M97.35,143H93L82.15,127.85c4.92-.12,8.14-1.61,10.42,2.36.54.93,3.45,1.24,4.83.7,1.08-.42,2.23-2.75,2-3.94a6.2,6.2,0,0,0-3.28-3.59c-2.33-1.1-5.3-1-7.41-2.35C82,116.8,82.09,107,88.39,101.87c1.7-1.38,2.91-3.38,5.06-5.94h4a90.94,90.94,0,0,1,6.16,7,89.77,89.77,0,0,1,4.62,8.09c-4.34.11-7.55,1.59-9.83-2.37-.54-.94-3.45-1.25-4.84-.71-1.07.41-2.22,2.75-2,3.94a6.27,6.27,0,0,0,3.27,3.6c2.61,1.25,6,1.31,8.18,3,6,4.48,5.54,13.71-.43,18.55C100.86,138.25,99.66,140.23,97.35,143Z"/></g></g></g></g></svg>