<svg xmlns="http://www.w3.org/2000/svg" viewBox="0 0 66.37 48.6"><g id="Layer_2" data-name="Layer 2"><g id="Layer_1-2" data-name="Layer 1"><g id="Layer_2-2" data-name="Layer 2"><g id="Layer_1-2-2" data-name="Layer 1-2"><path d="M42.65,3c-.44-.13-.85-.13-1-.33-.4-.39-1-1-.94-1.35S41.44.13,41.91.1a54.38,54.38,0,0,1,6.51,0c.46,0,1.12.75,1.24,1.26.08.36-.54,1-.94,1.34-.21.2-.62.19-1,.3V6.45a21.62,21.62,0,0,1,13.22,6.92l1.29-1.19.05-1.9A6.49,6.49,0,0,1,63.9,11a12.92,12.92,0,0,1,1.89,1.88,1.13,1.13,0,0,1,.26,1,1,1,0,0,1-.93.34c-1.16-.75-1.51.4-1.94.92-.24.28-.08,1.1.16,1.53,4,7.33,4.15,14.72-.2,21.84S52.4,48.83,44.22,48.59a20.85,20.85,0,0,1-14.76-6.81,3.51,3.51,0,0,0-2.24-1c-3.84-.1-7.68,0-11.53,0-.79,0-1.64.07-1.63-1.11s.88-1.1,1.66-1.1c4.57,0,9.14-.06,13.7,0a3.64,3.64,0,0,1,2.23,1.09c5.13,5.18,11.26,7.15,18.3,5.24S61.53,38,63.13,30.82A18.25,18.25,0,0,0,33.77,13.14a5.16,5.16,0,0,1-3.63,1.24c-4.18-.06-8.35,0-12.53,0-.88,0-1.92.17-1.88-1.23,0-1.24,1-1.14,1.82-1.14H28.92a4.32,4.32,0,0,0,3-1,17.47,17.47,0,0,1,8.64-4.08c1.71-.26,2.3-.93,2-2.55A10.09,10.09,0,0,1,42.65,3Z"/><path d="M43.92,29.79l8.53-8.67c.32-.32.6-.82,1-.9.67-.14,1.66-.31,2,0a2,2,0,0,1,0,2,53.91,53.91,0,0,1-4,4l-6,6c-1,1.07-1.84,1.19-2.91.06-1.89-2-3.89-4-5.89-6-.76-.75-1.23-1.55-.29-2.41s1.62-.34,2.31.38C40.31,26.05,42,27.8,43.92,29.79Z"/><path d="M13.72,25H25.57c.89,0,1.81,0,1.79,1.19s-1,1.11-1.83,1.11H1.82C1,27.28,0,27.46,0,26.18s1-1.24,1.86-1.24H13.72Z"/><path d="M18.48,31.92c2.44,0,4.89-.06,7.33,0a2,2,0,0,1,1.51,1c.23,1-.65,1.23-1.5,1.23H11A1.9,1.9,0,0,1,9.56,33c-.21-1,.6-1.11,1.41-1.1Z"/><path d="M18.54,20.43H11.2c-.8,0-1.66,0-1.7-1.1s.84-1.24,1.73-1.24H25.59c.87,0,1.79,0,1.79,1.2s-1,1.14-1.82,1.14C23.22,20.44,20.88,20.43,18.54,20.43Z"/></g></g></g></g></svg>