<svg xmlns="http://www.w3.org/2000/svg" viewBox="0 0 60.98 39.16"><defs><style>.cls-1{fill:#080808;}.cls-2{fill:#090909;}.cls-3{fill:#040404;}.cls-4{fill:#151515;}.cls-5{fill:#4f4f4f;}</style></defs><g id="Layer_2" data-name="Layer 2"><g id="Layer_1-2" data-name="Layer 1"><g id="Layer_2-2" data-name="Layer 2"><g id="Layer_1-2-2" data-name="Layer 1-2"><path class="cls-1" d="M19,11.67V36a2.89,2.89,0,0,1-2.58,3.19,2,2,0,0,1-.6,0h-12C1.05,39.14,0,38.07,0,35.27V3.86C0,1.38,1.37,0,3.8,0H15.46A3.22,3.22,0,0,1,19,2.9a3.31,3.31,0,0,1,0,.63v3.4c-1.67.82-1.75-.33-1.76-1.45H1.8V31.81H17.25V12.91C17.22,11.62,17.65,11.23,19,11.67ZM2,33.73c-.61,2.55.33,3.8,2.94,3.82H14c2.61,0,3.51-1.11,3.09-3.82ZM17.37,4c-.52-1.49-1.17-2.32-2.69-2.3-3.42.06-6.85,0-10.28,0A2.37,2.37,0,0,0,1.76,3.78a1.64,1.64,0,0,0,0,.22Z"/><path class="cls-2" d="M44.17,31.82H59.12V5.54H43.65V23.72c0,.45-.51.88-.79,1.32-.3-.44-.85-.88-.85-1.32q-.07-10.2,0-20.44A3.43,3.43,0,0,1,45.3,0H58a3.1,3.1,0,0,1,3,3.11V35.92a3,3,0,0,1-2.77,3.22H44.94a3.19,3.19,0,0,1-3-3V31.92c0-.76-.22-1.79.9-1.78C43.21,30.14,43.59,31,44.17,31.82Zm-.44,1.92c-.21,3.34.24,3.81,3.38,3.81h8.94c3,0,3.58-.82,2.93-3.81ZM59.15,4c.08-1.33-.2-2.28-1.75-2.28H46.08a2.32,2.32,0,0,0-2.43,2.21V4Z"/><path class="cls-3" d="M36.09,27H46.51l-.31-2.14c.67.08,1.34.19,2,.33a5.41,5.41,0,0,1,1.15.65c2.37,1.49,2.39,2,.13,3.57a6.13,6.13,0,0,1-1.4.86,10.36,10.36,0,0,1-2,.2l.29-2.07c-5.68,0-11.69-.24-17.67.1-3.31.19-8.43-4.57-8.47-8.3-.06-5.07-.12-5.07,3.74-10H14.85l.2,1.74a6,6,0,0,1-2.19-.26C9.24,9.7,9.24,9.59,12.38,7a1.81,1.81,0,0,1,.69-.42c.61-.13,1.23-.17,1.84-.24l-.18,2.05H29.24a20.64,20.64,0,0,1,4,.33,9.45,9.45,0,0,1,7.06,8.84C40.41,21.35,39.76,24.61,36.09,27ZM30.2,10.49c-4.4-.33-8.08,4.27-8,8.42a8.3,8.3,0,0,0,8.18,7.77c4.65-.12,8-3.2,8-7.65C38.49,12.76,33.91,10.48,30.2,10.49Z"/><path class="cls-4" d="M9.47,36.93c-.9-.54-2.21-1-2.17-1.36.18-1.29,1.4-.7,2.18-.7s2-.61,2.18.7C11.7,35.89,10.38,36.39,9.47,36.93Z"/><path class="cls-1" d="M51.12,36.85l-1.95-1.08c.69-.31,1.38-.64,2.08-.92a1.06,1.06,0,0,1,.66,0,14.43,14.43,0,0,1,1.62,1,16.43,16.43,0,0,1-1.58.73,1.52,1.52,0,0,1-.67,0Z"/><path class="cls-5" d="M27.83,19.34a6.54,6.54,0,0,0,.94,1.21,4.89,4.89,0,0,0,1.88,1c.4,0,.9-.61,1.36-1a6.37,6.37,0,0,0-1.19-1c-.55-.24-1.34-.1-1.77-.44-.78-.63-1.79-1.44-1.91-2.28s.74-1.8,1.23-2.67a11.48,11.48,0,0,1,1.17-1.62c.25-.31.59-.77.89-.77s.68.43.94.74c.42.51.75,1.09,1.17,1.61s.86.69,1,1.12a6.3,6.3,0,0,1,0,1.84c-.5-.26-1-.53-1.49-.77a6.35,6.35,0,0,0-2-.86c-.36,0-.8.63-1.2,1A7.07,7.07,0,0,0,30,17.51a2.82,2.82,0,0,0,1.15.24,2.75,2.75,0,0,1,1,5.28c-.37.21-.44.9-.73,1.31a2,2,0,0,1-.92.83c-.2,0-.56-.49-.81-.79a13.53,13.53,0,0,1-1.16-1.44,18.49,18.49,0,0,1-1.44-2.43C27,20.37,27.45,19.92,27.83,19.34Z"/></g></g></g></g></svg>